<?xml version="1.0" encoding="UTF-8"?>
<svg id="_レイヤー_2" data-name="レイヤー 2" xmlns="http://www.w3.org/2000/svg" xmlns:xlink="http://www.w3.org/1999/xlink" viewBox="0 0 280.08 280.08">
  <defs>
    <style>
      .cls-1 {
        fill: #0a1c29;
      }

      .cls-2, .cls-3 {
        fill: none;
      }

      .cls-4 {
        fill: #f4f9fc;
      }

      .cls-5 {
        fill: #40acfa;
      }

      .cls-3 {
        stroke: #40acfa;
        stroke-miterlimit: 10;
        stroke-width: 4px;
      }

      .cls-6 {
        clip-path: url(#clippath);
      }
    </style>
    <clipPath id="clippath">
      <circle class="cls-2" cx="140.04" cy="140.04" r="140.04"/>
    </clipPath>
  </defs>
  <g id="_レイヤー_1-2" data-name="レイヤー 1">
    <g class="cls-6">
      <g>
        <rect class="cls-4" x="-40.52" y="-17.89" width="368.29" height="322.93"/>
        <g>
          <path class="cls-5" d="M74.48,212.6v64.05h33.9v-64.09c-5.31-.26-10.81-.41-16.58-.41s-11.79.16-17.32.45Z"/>
          <path class="cls-5" d="M176.62,276.65h34.2v-35.9c-10.54-5.62-21.66-10.9-34.2-15.36v51.27Z"/>
        </g>
        <g>
          <path class="cls-1" d="M150.68,156.95v-30h-42.3v-11.4c0-20.1,10.2-30.3,26.7-30.3,5.4,0,10.2.3,15.9,2.1l1.2-29.1c-6.9-2.1-13.5-3-21.3-3-33.6,0-56.4,21-56.4,60.9v10.8h-23.4v30h23.4v55.65c5.53-.29,11.29-.45,17.32-.45s11.27.15,16.58.41v-55.62h42.3Z"/>
          <path class="cls-1" d="M176.62,126.95v98.43c12.54,4.47,23.66,9.75,34.2,15.36v-113.8h-34.2Z"/>
          <path class="cls-1" d="M193.72,107.75c12.6,0,21.6-8.4,21.6-20.4s-9-20.7-21.6-20.7-21.6,8.4-21.6,20.7,9,20.4,21.6,20.4Z"/>
        </g>
        <path class="cls-3" d="M746.01,230.96c-24.5-10.35-54.06-17.8-96.6-17.8-139.4,0-139.4,80-278.81,80-139.4,0-139.4-80-278.81-80-34.15,0-59.94,4.8-81.46,12.05"/>
      </g>
    </g>
  </g>
</svg>